<svg xmlns="http://www.w3.org/2000/svg" viewBox="0 0 512 512">
  <!-- Trophy Cup -->
  <path d="M 448 64 L 448 32 C 448 14.33 433.7 0 416 0 L 96 0 C 78.33 0 64 14.33 64 32 L 64 64 L 48 64 C 21.49 64 0 85.49 0 112 L 0 144 C 0 177.6 23.37 205.6 54.66 214.9 C 78.68 263.5 122.1 297.9 173.9 309 L 173.9 362.7 C 141.6 369.9 116 397.4 112 432 L 112 448 C 112 456.8 119.2 464 128 464 L 384 464 C 392.8 464 400 456.8 400 448 L 400 432 C 396 397.4 370.4 369.9 338.1 362.7 L 338.1 309 C 389.9 297.9 433.3 263.5 457.3 214.9 C 488.6 205.6 512 177.6 512 144 L 512 112 C 512 85.49 490.5 64 464 64 L 448 64 Z M 64 144 L 64 112 C 64 103.2 71.16 96 80 96 L 96 96 L 96 160 C 87.16 160 64 152.8 64 144 Z M 416 160 L 416 96 L 432 96 C 440.8 96 448 103.2 448 112 L 448 144 C 448 152.8 440.8 160 432 160 L 416 160 Z" fill="#FFD700"/>
  
  <!-- Hard Hat -->
  <g transform="translate(156, 70) scale(0.4)">
    <ellipse cx="250" cy="300" rx="220" ry="25" fill="#FFA500"/>
    <path d="M 40 300 Q 40 120 250 80 Q 460 120 460 300 Z" fill="#FFD700"/>
    <rect x="235" y="70" width="30" height="20" fill="#FFA500" rx="3"/>
  </g>
</svg>
